<?xml version="1.0" encoding="iso-8859-1"?>
<!-- Generator: Adobe Illustrator 19.0.0, SVG Export Plug-In . SVG Version: 6.00 Build 0)  -->
<svg version="1.1" id="Layer_1" xmlns="http://www.w3.org/2000/svg" height="48" width="48" xmlns:xlink="http://www.w3.org/1999/xlink" x="0px" y="0px"
	 viewBox="0 0 512 512" style="enable-background:new 0 0 512 512;" xml:space="preserve">
<g>
	<g>
		<path d="M505.805,426.616l-29.15-0.026c-15.471-2.236-17.101-1.732-21.931-0.282c-0.819,0.247-1.647,0.358-2.458,0.358
			c-3.669,0-7.057-2.381-8.166-6.067c-1.365-4.523,1.195-9.276,5.709-10.641c7.526-2.236,11.469-2.799,28.664-0.358h10.931
			c-0.085-0.034-0.171-0.094-0.256-0.128c-3.567-33.391-31.667-59.605-65.348-59.605c-12.382,0-24.508,3.61-34.97,9.984
			l-90.607-74.129c-1.946-18.586-15.667-33.715-33.69-37.385v-86.204h64.102c17.468,0,38.298-7.398,38.298-42.667
			c0-15.3-2.466-26.223-6.195-34.185l-29.15-0.026c-15.471-2.236-17.101-1.732-21.931-0.282c-0.819,0.247-1.647,0.358-2.458,0.358
			c-3.669,0-7.057-2.381-8.166-6.067c-1.365-4.523,1.195-9.276,5.709-10.641c7.526-2.236,11.469-2.799,28.663-0.358h10.931
			c-0.085-0.034-0.171-0.094-0.256-0.128c-3.567-33.391-31.667-59.605-65.348-59.605c-19.55,0-38.494,8.943-51.217,23.697
			l8.713,8.124c7.279,6.955,11.238,16.845,11.238,27.913c0,4.719-3.823,8.533-8.533,8.533s-8.533-3.814-8.533-8.533
			c0-6.366-2.091-11.87-5.888-15.505l-21.521-20.07c-15.078,3.942-25.779,16.648-26.47,32.964
			c-12.143,6.383-31.454,19.985-31.454,53.811c0,29.32,29.73,42.667,57.353,42.667h45.047v86.204
			c-18.005,3.669-31.71,18.773-33.681,37.333l-80.256,64.205c-19.499,0.043-38.383,8.969-51.081,23.688l8.713,8.124
			c7.279,6.955,11.238,16.845,11.238,27.913c0,4.719-3.823,8.533-8.533,8.533c-4.71,0-8.533-3.814-8.533-8.533
			c0-6.366-2.091-11.87-5.888-15.505l-21.521-20.07c-15.078,3.942-25.779,16.649-26.47,32.964C19.311,413.372,0,426.974,0,460.8
			c0,29.321,29.73,42.667,57.353,42.667h126.217c17.468,0,38.298-7.398,38.298-42.667c0-15.3-2.466-26.223-6.195-34.185
			l-29.15-0.026c-15.471-2.236-17.101-1.732-21.931-0.282c-0.819,0.247-1.647,0.358-2.458,0.358c-3.669,0-7.057-2.381-8.166-6.067
			c-1.365-4.523,1.195-9.276,5.709-10.641c7.526-2.236,11.469-2.799,28.664-0.358h10.931c-0.085-0.034-0.171-0.094-0.256-0.128
			c-2.739-25.685-20.019-47.061-43.162-55.586l60.459-48.375c6.195,15.932,21.598,27.29,39.689,27.29
			c18.031,0,33.408-11.281,39.637-27.127l79.607,65.126c-0.887,0.922-1.826,1.792-2.662,2.765l8.713,8.124
			c7.279,6.955,11.238,16.845,11.238,27.913c0,4.719-3.823,8.533-8.533,8.533c-4.71,0-8.533-3.814-8.533-8.533
			c0-6.366-2.091-11.87-5.888-15.505l-21.521-20.07c-15.078,3.942-25.779,16.649-26.47,32.964
			c-12.143,6.383-31.454,19.985-31.454,53.811c0,29.321,29.73,42.667,57.353,42.667h126.216c17.468,0,38.298-7.398,38.298-42.667
			C512,445.5,509.534,434.577,505.805,426.616z"/>
	</g>
</g>
<g>
</g>
<g>
</g>
<g>
</g>
<g>
</g>
<g>
</g>
<g>
</g>
<g>
</g>
<g>
</g>
<g>
</g>
<g>
</g>
<g>
</g>
<g>
</g>
<g>
</g>
<g>
</g>
<g>
</g>
</svg>
