<?xml version="1.0" encoding="iso-8859-1"?>
<!-- Generator: Adobe Illustrator 19.0.0, SVG Export Plug-In . SVG Version: 6.00 Build 0)  -->
<svg version="1.1" id="Layer_1" xmlns="http://www.w3.org/2000/svg" height="48" width="48" xmlns:xlink="http://www.w3.org/1999/xlink" x="0px" y="0px"
	 viewBox="0 0 512 512" style="enable-background:new 0 0 512 512;" xml:space="preserve">
<g>
	<g>
		<path d="M507.526,331.738c1.619-3.435,0.729-7.541-2.176-9.992l-30.775-25.992c-1.512-1.279-3.43-1.984-5.414-1.984h-61.553
			h-61.549c-1.984,0-3.902,0.705-5.414,1.984l-30.779,25.992c-2.906,2.451-3.795,6.557-2.176,9.992
			c0.168,0.36,16.602,35.762,6.16,57.811c-9.18,19.385-9.004,46.213,0.426,65.238c6.594,13.295,16.984,21.779,30.049,24.541
			c28.283,5.975,57.578,30.451,57.869,30.697c0.416,0.35,0.903,0.529,1.361,0.783c0.297,0.168,0.557,0.373,0.87,0.502
			c1.026,0.424,2.093,0.691,3.179,0.691c0.001,0,0.002,0,0.004,0c0.001,0,0.002,0,0.004,0c1.083,0,2.15-0.266,3.175-0.688
			c0.318-0.131,0.581-0.34,0.883-0.51c0.452-0.254,0.935-0.43,1.347-0.777c0.295-0.246,29.594-24.721,57.877-30.697
			c13.065-2.762,23.455-11.246,30.045-24.541c9.434-19.033,9.611-45.853,0.43-65.238C490.927,367.5,507.358,332.098,507.526,331.738
			z M485.903,447.328c-4.291,8.648-10.508,13.893-18.475,15.574c-24.987,5.279-49.308,22.041-59.82,30.014
			c-10.508-7.973-34.827-24.736-59.816-30.014c-7.971-1.68-14.184-6.926-18.475-15.574c-7.07-14.262-7.197-36.016-0.295-50.598
			c10.893-22.992,1.361-53.361-3.611-66.139l23.717-20.033h58.479h58.484l23.713,20.033c-4.971,12.779-14.496,43.148-3.607,66.139
			C493.1,411.311,492.972,433.057,485.903,447.328z"/>
	</g>
</g>
<g>
	<g>
		<path d="M461.448,376.484c-0.988-3.033-3.615-5.246-6.779-5.705l-28.873-4.197l-12.91-26.164c-1.414-2.869-4.332-4.68-7.529-4.68
			c-3.192,0-6.111,1.812-7.525,4.68l-12.918,26.164l-28.873,4.197c-3.164,0.459-5.791,2.672-6.779,5.713
			c-0.988,3.033-0.164,6.369,2.123,8.598l20.898,20.369l-4.934,28.762c-0.537,3.148,0.754,6.328,3.34,8.205
			c2.598,1.893,6.016,2.131,8.84,0.639l25.828-13.574l25.824,13.574c1.229,0.648,2.57,0.967,3.906,0.967
			c1.738,0,3.471-0.541,4.934-1.607c2.582-1.877,3.877-5.057,3.34-8.205l-4.935-28.762l20.898-20.369
			C461.612,382.861,462.435,379.525,461.448,376.484z M423.55,396.525c-1.975,1.926-2.877,4.705-2.414,7.426l2.803,16.344
			l-14.676-7.713c-1.221-0.648-2.566-0.967-3.906-0.967c-1.34,0-2.684,0.32-3.906,0.967l-14.68,7.713l2.803-16.344
			c0.467-2.721-0.435-5.5-2.41-7.426l-11.881-11.582l16.41-2.385c2.734-0.393,5.098-2.115,6.32-4.59l7.344-14.869l7.336,14.869
			c1.225,2.475,3.586,4.197,6.324,4.59l16.41,2.385L423.55,396.525z"/>
	</g>
</g>
<g>
	<g>
		<path d="M483.181,0H29.874C16.005,0,3.673,11.32,3.673,25.229v83.836c0,13.91,12.332,25.229,26.201,25.229h453.307
			c13.865,0,24.098-11.32,24.098-25.229V25.229C507.28,11.32,497.046,0,483.181,0z M490.493,109.066
			c0,4.656-2.701,8.443-7.312,8.443H29.874c-4.611,0-9.414-3.787-9.414-8.443V25.229c0-4.656,4.803-8.443,9.414-8.443h453.307
			c4.611,0,7.312,3.787,7.312,8.443V109.066z"/>
	</g>
</g>
<g>
	<g>
		<path d="M483.181,142.689H29.874c-13.869,0-26.201,11.32-26.201,25.229v83.836c0,13.91,12.332,25.229,26.201,25.229h453.307
			c13.865,0,24.098-11.32,24.098-25.229v-83.836C507.28,154.008,497.046,142.689,483.181,142.689z M490.493,251.754
			c0,4.656-2.701,8.443-7.312,8.443H29.874c-4.611,0-9.414-3.787-9.414-8.443v-83.836c0-4.656,4.803-8.443,9.414-8.443h453.307
			c4.611,0,7.312,3.787,7.312,8.443V251.754z"/>
	</g>
</g>
<g>
	<g>
		<path d="M276.747,402.885H29.911c-4.631,0-9.451-3.787-9.451-8.443v-83.836c0-4.656,4.807-8.443,9.426-8.443h244.943
			c4.635,0,8.393-3.754,8.393-8.393s-3.758-8.393-8.393-8.393H29.886c-13.877,0-26.213,11.32-26.213,25.229v83.836
			c0,13.91,12.348,25.229,26.238,25.229h246.836c4.635,0,8.393-3.754,8.393-8.393S281.382,402.885,276.747,402.885z"/>
	</g>
</g>
<g>
	<g>
		<path d="M441.181,33.574c-18.512,0-33.574,15.057-33.574,33.574c0,18.516,15.061,33.574,33.574,33.574
			c18.512,0,33.574-15.057,33.574-33.574C474.755,48.631,459.694,33.574,441.181,33.574z M441.181,83.934
			c-9.258,0-16.787-7.533-16.787-16.787c0-9.254,7.529-16.787,16.787-16.787s16.787,7.533,16.787,16.787
			C457.968,76.402,450.44,83.934,441.181,83.934z"/>
	</g>
</g>
<g>
	<g>
		<path d="M441.181,176.262c-18.512,0-33.574,15.057-33.574,33.574s15.061,33.574,33.574,33.574
			c18.512,0,33.574-15.057,33.574-33.574S459.694,176.262,441.181,176.262z M441.181,226.623c-9.258,0-16.787-7.533-16.787-16.787
			s7.529-16.787,16.787-16.787s16.787,7.533,16.787,16.787S450.44,226.623,441.181,226.623z"/>
	</g>
</g>
<g>
	<g>
		<path d="M63.477,41.967c-13.885,0-25.18,11.295-25.18,25.18c0,13.885,11.295,25.18,25.18,25.18s25.18-11.295,25.18-25.18
			C88.657,53.262,77.362,41.967,63.477,41.967z M63.477,75.541c-4.627,0-8.393-3.762-8.393-8.393c0-4.631,3.766-8.393,8.393-8.393
			s8.393,3.762,8.393,8.393C71.87,71.779,68.104,75.541,63.477,75.541z"/>
	</g>
</g>
<g>
	<g>
		<path d="M63.477,184.656c-13.885,0-25.18,11.295-25.18,25.18c0,13.885,11.295,25.18,25.18,25.18s25.18-11.295,25.18-25.18
			C88.657,195.951,77.362,184.656,63.477,184.656z M63.477,218.229c-4.627,0-8.393-3.762-8.393-8.393s3.766-8.393,8.393-8.393
			s8.393,3.762,8.393,8.393S68.104,218.229,63.477,218.229z"/>
	</g>
</g>
<g>
	<g>
		<path d="M63.477,327.344c-13.885,0-25.18,11.295-25.18,25.18c0,13.885,11.295,25.18,25.18,25.18s25.18-11.295,25.18-25.18
			C88.657,338.639,77.362,327.344,63.477,327.344z M63.477,360.918c-4.627,0-8.393-3.762-8.393-8.393
			c0-4.631,3.766-8.393,8.393-8.393s8.393,3.762,8.393,8.393C71.87,357.156,68.104,360.918,63.477,360.918z"/>
	</g>
</g>
<g>
	<g>
		<path d="M130.624,41.967c-13.885,0-25.18,11.295-25.18,25.18c0,13.885,11.295,25.18,25.18,25.18
			c13.885,0,25.18-11.295,25.18-25.18C155.804,53.262,144.509,41.967,130.624,41.967z M130.624,75.541
			c-4.627,0-8.393-3.762-8.393-8.393c0-4.631,3.766-8.393,8.393-8.393c4.627,0,8.393,3.762,8.393,8.393
			C139.018,71.779,135.251,75.541,130.624,75.541z"/>
	</g>
</g>
<g>
	<g>
		<path d="M130.624,184.656c-13.885,0-25.18,11.295-25.18,25.18c0,13.885,11.295,25.18,25.18,25.18
			c13.885,0,25.18-11.295,25.18-25.18C155.804,195.951,144.509,184.656,130.624,184.656z M130.624,218.229
			c-4.627,0-8.393-3.762-8.393-8.393s3.766-8.393,8.393-8.393c4.627,0,8.393,3.762,8.393,8.393S135.251,218.229,130.624,218.229z"/>
	</g>
</g>
<g>
	<g>
		<path d="M130.624,327.344c-13.885,0-25.18,11.295-25.18,25.18c0,13.885,11.295,25.18,25.18,25.18
			c13.885,0,25.18-11.295,25.18-25.18C155.804,338.639,144.509,327.344,130.624,327.344z M130.624,360.918
			c-4.627,0-8.393-3.762-8.393-8.393c0-4.631,3.766-8.393,8.393-8.393c4.627,0,8.393,3.762,8.393,8.393
			C139.018,357.156,135.251,360.918,130.624,360.918z"/>
	</g>
</g>
<g>
	<g>
		<path d="M206.165,41.967c-13.885,0-25.18,11.295-25.18,25.18c0,13.885,11.295,25.18,25.18,25.18
			c13.885,0,25.18-11.295,25.18-25.18C231.345,53.262,220.05,41.967,206.165,41.967z M206.165,75.541
			c-4.627,0-8.393-3.762-8.393-8.393c0-4.631,3.766-8.393,8.393-8.393c4.627,0,8.393,3.762,8.393,8.393
			C214.559,71.779,210.792,75.541,206.165,75.541z"/>
	</g>
</g>
<g>
	<g>
		<path d="M206.165,184.656c-13.885,0-25.18,11.295-25.18,25.18c0,13.885,11.295,25.18,25.18,25.18
			c13.885,0,25.18-11.295,25.18-25.18C231.345,195.951,220.05,184.656,206.165,184.656z M206.165,218.229
			c-4.627,0-8.393-3.762-8.393-8.393s3.766-8.393,8.393-8.393c4.627,0,8.393,3.762,8.393,8.393S210.792,218.229,206.165,218.229z"/>
	</g>
</g>
<g>
	<g>
		<path d="M206.165,327.344c-13.885,0-25.18,11.295-25.18,25.18c0,13.885,11.295,25.18,25.18,25.18
			c13.885,0,25.18-11.295,25.18-25.18C231.345,338.639,220.05,327.344,206.165,327.344z M206.165,360.918
			c-4.627,0-8.393-3.762-8.393-8.393c0-4.631,3.766-8.393,8.393-8.393c4.627,0,8.393,3.762,8.393,8.393
			C214.559,357.156,210.792,360.918,206.165,360.918z"/>
	</g>
</g>
<g>
</g>
<g>
</g>
<g>
</g>
<g>
</g>
<g>
</g>
<g>
</g>
<g>
</g>
<g>
</g>
<g>
</g>
<g>
</g>
<g>
</g>
<g>
</g>
<g>
</g>
<g>
</g>
<g>
</g>
</svg>
